{
    "asset" : {
        "generator" : "Khronos glTF Blender I/O v3.3.27",
        "version" : "2.0"
    },
    "extensionsUsed" : [
        "KHR_materials_specular",
        "KHR_materials_ior"
    ],
    "scene" : 0,
    "scenes" : [
        {
            "name" : "Scene",
            "nodes" : [
                0,
                1
            ]
        }
    ],
    "nodes" : [
        {
            "mesh" : 0,
            "name" : "BezierCurve.004",
            "rotation" : [
                0,
                0,
                -0.7071067094802856,
                0.7071068286895752
            ],
            "scale" : [
                4.2579216957092285,
                4.2579216957092285,
                4.2579216957092285
            ],
            "translation" : [
                -21.81979751586914,
                4.251303672790527,
                4.590558052062988
            ]
        },
        {
            "mesh" : 1,
            "name" : "BezierCurve.005",
            "rotation" : [
                0.5284219980239868,
                0.5736421942710876,
                -0.5485715866088867,
                0.30128735303878784
            ],
            "scale" : [
                1.1019858121871948,
                1.1019859313964844,
                1.101986050605774
            ],
            "translation" : [
                -21.507774353027344,
                6.788929462432861,
                4.709839820861816
            ]
        }
    ],
    "materials" : [
        {
            "doubleSided" : true,
            "extensions" : {
                "KHR_materials_specular" : {
                    "specularColorFactor" : [
                        0.19402016010215498,
                        0.19402016010215498,
                        0.19402016010215498
                    ]
                },
                "KHR_materials_ior" : {
                    "ior" : 1.4500000476837158
                }
            },
            "name" : "Material.004",
            "pbrMetallicRoughness" : {
                "baseColorFactor" : [
                    0.14916443824768066,
                    0.058456242084503174,
                    0.008222042582929134,
                    1
                ],
                "metallicFactor" : 0
            }
        },
        {
            "doubleSided" : true,
            "extensions" : {
                "KHR_materials_specular" : {
                    "specularColorFactor" : [
                        1.142563184677125,
                        1.142563184677125,
                        1.142563184677125
                    ]
                },
                "KHR_materials_ior" : {
                    "ior" : 1.4500000476837158
                }
            },
            "name" : "Material.005",
            "pbrMetallicRoughness" : {
                "baseColorFactor" : [
                    0.003737645922228694,
                    0.095956951379776,
                    0.004030256997793913,
                    1
                ],
                "metallicFactor" : 0,
                "roughnessFactor" : 0.5
            }
        }
    ],
    "meshes" : [
        {
            "name" : "BezierCurve.004",
            "primitives" : [
                {
                    "attributes" : {
                        "POSITION" : 0,
                        "NORMAL" : 1
                    },
                    "indices" : 2,
                    "material" : 0
                }
            ]
        },
        {
            "name" : "BezierCurve.005",
            "primitives" : [
                {
                    "attributes" : {
                        "POSITION" : 3,
                        "NORMAL" : 4
                    },
                    "indices" : 5,
                    "material" : 1
                }
            ]
        }
    ],
    "accessors" : [
        {
            "bufferView" : 0,
            "componentType" : 5126,
            "count" : 4116,
            "max" : [
                1,
                0.06441165506839752,
                -0.15891218185424805
            ],
            "min" : [
                -0.6415241360664368,
                -0.060324180871248245,
                -0.5658038854598999
            ],
            "type" : "VEC3"
        },
        {
            "bufferView" : 1,
            "componentType" : 5126,
            "count" : 4116,
            "type" : "VEC3"
        },
        {
            "bufferView" : 2,
            "componentType" : 5123,
            "count" : 6924,
            "type" : "SCALAR"
        },
        {
            "bufferView" : 3,
            "componentType" : 5126,
            "count" : 915,
            "max" : [
                5.105588912963867,
                4.5086846351623535,
                2.218189001083374
            ],
            "min" : [
                -2.6885125637054443,
                -4.098244667053223,
                -0.7103395462036133
            ],
            "type" : "VEC3"
        },
        {
            "bufferView" : 4,
            "componentType" : 5126,
            "count" : 915,
            "type" : "VEC3"
        },
        {
            "bufferView" : 5,
            "componentType" : 5123,
            "count" : 3240,
            "type" : "SCALAR"
        }
    ],
    "bufferViews" : [
        {
            "buffer" : 0,
            "byteLength" : 49392,
            "byteOffset" : 0,
            "target" : 34962
        },
        {
            "buffer" : 0,
            "byteLength" : 49392,
            "byteOffset" : 49392,
            "target" : 34962
        },
        {
            "buffer" : 0,
            "byteLength" : 13848,
            "byteOffset" : 98784,
            "target" : 34963
        },
        {
            "buffer" : 0,
            "byteLength" : 10980,
            "byteOffset" : 112632,
            "target" : 34962
        },
        {
            "buffer" : 0,
            "byteLength" : 10980,
            "byteOffset" : 123612,
            "target" : 34962
        },
        {
            "buffer" : 0,
            "byteLength" : 6480,
            "byteOffset" : 134592,
            "target" : 34963
        }
    ],
    "buffers" : [
        {
            "byteLength" : 141072,
            "uri" : "data:application/octet-stream;base64,"
        }
    ]
}
