{
    "asset" : {
        "generator" : "Khronos glTF Blender I/O v3.3.27",
        "version" : "2.0"
    },
    "scene" : 0,
    "scenes" : [
        {
            "name" : "Scene",
            "nodes" : [
                0
            ]
        }
    ],
    "nodes" : [
        {
            "mesh" : 0,
            "name" : "10537_Surfboard_v1_L3",
            "rotation" : [
                -0.7071068286895752,
                -0.7071068286895752,
                0,
                5.338509012631221e-08
            ],
            "scale" : [
                0.012939950451254845,
                0.012939950451254845,
                0.012939950451254845
            ],
            "translation" : [
                -15.958512306213379,
                1.3063030242919922,
                5.323760032653809
            ]
        }
    ],
    "materials" : [
        {
            "doubleSided" : true,
            "name" : "Tabla1",
            "pbrMetallicRoughness" : {
                "baseColorTexture" : {
                    "index" : 0
                },
                "metallicFactor" : 0,
                "roughnessFactor" : 0.5
            }
        }
    ],
    "meshes" : [
        {
            "name" : "10537_Surfboard_v1_L3",
            "primitives" : [
                {
                    "attributes" : {
                        "POSITION" : 0,
                        "NORMAL" : 1,
                        "TEXCOORD_0" : 2
                    },
                    "indices" : 3,
                    "material" : 0
                }
            ]
        }
    ],
    "textures" : [
        {
            "sampler" : 0,
            "source" : 0
        }
    ],
    "images" : [
        {
            "bufferView" : 4,
            "mimeType" : "image/jpeg",
            "name" : "fondo1"
        }
    ],
    "accessors" : [
        {
            "bufferView" : 0,
            "componentType" : 5126,
            "count" : 4702,
            "max" : [
                103.4751968383789,
                24.698200225830078,
                27.3257999420166
            ],
            "min" : [
                -104.05370330810547,
                0.1354999989271164,
                -27.3257999420166
            ],
            "type" : "VEC3"
        },
        {
            "bufferView" : 1,
            "componentType" : 5126,
            "count" : 4702,
            "type" : "VEC3"
        },
        {
            "bufferView" : 2,
            "componentType" : 5126,
            "count" : 4702,
            "type" : "VEC2"
        },
        {
            "bufferView" : 3,
            "componentType" : 5123,
            "count" : 25536,
            "type" : "SCALAR"
        }
    ],
    "bufferViews" : [
        {
            "buffer" : 0,
            "byteLength" : 56424,
            "byteOffset" : 0,
            "target" : 34962
        },
        {
            "buffer" : 0,
            "byteLength" : 56424,
            "byteOffset" : 56424,
            "target" : 34962
        },
        {
            "buffer" : 0,
            "byteLength" : 37616,
            "byteOffset" : 112848,
            "target" : 34962
        },
        {
            "buffer" : 0,
            "byteLength" : 51072,
            "byteOffset" : 150464,
            "target" : 34963
        },
        {
            "buffer" : 0,
            "byteLength" : 70744,
            "byteOffset" : 201536
        }
    ],
    "samplers" : [
        {
            "magFilter" : 9729,
            "minFilter" : 9987
        }
    ],
    "buffers" : [
        {
            "byteLength" : 272280,
            "uri" : "data:application/octet-stream;base64,"
        }
    ]
}
